<?xml version="1.0" encoding="utf-8"?>
<!-- Generator: Adobe Illustrator 22.1.0, SVG Export Plug-In . SVG Version: 6.00 Build 0)  -->
<svg version="1.1" id="Слой_1" xmlns="http://www.w3.org/2000/svg" xmlns:xlink="http://www.w3.org/1999/xlink" x="0px" y="0px"
	 viewBox="0 0 28 26" style="enable-background:new 0 0 28 26;" xml:space="preserve">
<style type="text/css">
	.st0{fill:#54D154;}
</style>
<title>dashboard</title>
<path class="st0" d="M6,16c0-1.1-0.9-2-2-2s-2,0.9-2,2s0.9,2,2,2S6,17.1,6,16z M9,9c0-1.1-0.9-2-2-2S5,7.9,5,9s0.9,2,2,2S9,10.1,9,9
	z M15.7,16.5l1.6-6c0.1-0.5-0.2-1.1-0.7-1.2l0,0C16,9.2,15.5,9.5,15.3,10l-1.6,6c-1.2,0.1-2.3,1-2.7,2.2c-0.4,1.6,0.5,3.3,2.1,3.7
	c1.6,0.4,3.3-0.5,3.7-2.1C17.2,18.5,16.7,17.2,15.7,16.5z M26,16c0-1.1-0.9-2-2-2s-2,0.9-2,2s0.9,2,2,2S26,17.1,26,16z M16,6
	c0-1.1-0.9-2-2-2s-2,0.9-2,2s0.9,2,2,2S16,7.1,16,6z M23,9c0-1.1-0.9-2-2-2s-2,0.9-2,2s0.9,2,2,2S23,10.1,23,9z M28,16
	c0,2.7-0.8,5.3-2.2,7.5C25.6,23.8,25.3,24,25,24H3c-0.3,0-0.7-0.2-0.8-0.5C0.8,21.3,0,18.7,0,16C0,8.3,6.3,2,14,2S28,8.3,28,16z"/>
</svg>
